<svg width="71" height="72" viewBox="0 0 71 72" fill="none" xmlns="http://www.w3.org/2000/svg">
<path fill-rule="evenodd" clip-rule="evenodd" d="M35.454 6.64844L54.2346 17.7212V39.8668L35.454 50.9396L16.6733 39.8668L16.6733 17.7212L35.454 6.64844Z" fill="url(#paint0_linear_2315_3187)"/>
<path fill-rule="evenodd" clip-rule="evenodd" d="M38.1404 22.5098H40.3594L33.2351 35.1414H31.0161L38.1404 22.5098Z" fill="white"/>
<path fill-rule="evenodd" clip-rule="evenodd" d="M23.0249 28.0411L29.4245 25.2251V27.0893L24.9546 28.806V28.8322L29.4245 30.5489V32.4131L23.0249 29.5971" fill="white"/>
<path fill-rule="evenodd" clip-rule="evenodd" d="M47.8765 28.0543L41.4769 25.2383V27.1025L45.9468 28.8192V28.8454L41.4769 30.5621V32.4263L47.8765 29.6102" fill="white"/>
<path id="kwddm-text-left" d="M7.20051 64.4192C7.71527 64.4192 8.17896 64.3039 8.59157 64.0733C9.00417 63.8427 9.33134 63.5053 9.57306 63.061C9.81479 62.6167 9.93565 62.0752 9.93565 61.4364C9.93565 60.7951 9.81479 60.2516 9.57306 59.806C9.33134 59.3604 9.00417 59.0223 8.59157 58.7917C8.17896 58.5611 7.71527 58.4458 7.20051 58.4458C6.68631 58.4458 6.22213 58.5611 5.80798 58.7917C5.39383 59.0223 5.06628 59.3604 4.82531 59.806C4.58435 60.2516 4.46387 60.7951 4.46387 61.4364C4.46387 62.073 4.58435 62.6135 4.82531 63.0578C5.06628 63.5021 5.39383 63.8401 5.80798 64.0718C6.22213 64.3034 6.68631 64.4192 7.20051 64.4192ZM7.20051 63.1886C6.92595 63.1886 6.69014 63.1213 6.49307 62.9868C6.29601 62.8522 6.14437 62.6546 6.03814 62.3937C5.93191 62.1329 5.8788 61.8138 5.8788 61.4364C5.8788 61.0564 5.93191 60.7354 6.03814 60.4732C6.14437 60.2111 6.29601 60.0128 6.49307 59.8782C6.69014 59.7437 6.92595 59.6764 7.20051 59.6764C7.47716 59.6764 7.71388 59.7437 7.91068 59.8782C8.10748 60.0128 8.25836 60.2111 8.3633 60.4732C8.46825 60.7354 8.52072 61.0564 8.52072 61.4364C8.52072 61.8138 8.46825 62.1329 8.3633 62.3937C8.25836 62.6546 8.10748 62.8522 7.91068 62.9868C7.71388 63.1213 7.47716 63.1886 7.20051 63.1886ZM12.2595 64.3411L13.288 60.8164H13.3342L14.3627 64.3411H15.7006L17.3695 58.5239H15.836L14.9692 62.3453H14.92L13.9377 58.5239H12.6845L11.7007 62.3329H11.653L10.7846 58.5239H9.25275L10.9201 64.3411H12.2595ZM17.0361 58.5239V64.3411H18.4184H19.1576C19.7013 64.3411 20.1751 64.24 20.579 64.0378L20.6645 63.9929C21.0866 63.7607 21.4119 63.4272 21.6403 62.9922C21.8686 62.5573 21.9828 62.0377 21.9828 61.4333C21.9828 60.8279 21.8684 60.308 21.6395 59.8735C21.4106 59.4391 21.0851 59.1056 20.663 58.8729C20.2409 58.6402 19.7381 58.5239 19.1546 58.5239H18.4186H17.6011H17.0361ZM18.4184 59.7234L19.0776 59.7233C19.4076 59.7233 19.6858 59.7786 19.9124 59.8892C20.139 59.9998 20.31 60.1802 20.4255 60.4303C20.541 60.6805 20.5987 61.0148 20.5987 61.4333C20.5987 61.8508 20.5413 62.185 20.4263 62.4359C20.3113 62.6868 20.1421 62.8672 19.9186 62.977C19.6951 63.0869 19.4219 63.1418 19.0991 63.1418L18.4184 63.1419V59.7234ZM21.8888 58.5239V64.3411H23.2713H24.0104C24.554 64.3411 25.0278 64.24 25.4318 64.0378L25.5173 63.9929C25.9394 63.7607 26.2646 63.4272 26.493 62.9922C26.7213 62.5573 26.8355 62.0377 26.8355 61.4333C26.8355 60.8279 26.7211 60.308 26.4922 59.8735C26.2633 59.4391 25.9378 59.1056 25.5157 58.8729C25.0936 58.6402 24.5908 58.5239 24.0073 58.5239H23.2714H22.4538H21.8888ZM23.2713 59.7234L23.9303 59.7233C24.2603 59.7233 24.5386 59.7786 24.7651 59.8892C24.9917 59.9998 25.1627 60.1802 25.2782 60.4303C25.3937 60.6805 25.4515 61.0148 25.4515 61.4333C25.4515 61.8508 25.394 62.185 25.279 62.4359C25.164 62.6868 24.9948 62.8672 24.7713 62.977C24.5478 63.0869 24.2746 63.1418 23.9519 63.1418L23.2713 63.1419V59.7234ZM28.0917 64.3411V60.7524H28.1395L29.512 64.3037H30.3757L31.759 60.7649H31.8007V64.3411H33.1562V58.5239H31.4389L29.9777 62.1251H29.9147L28.4597 58.5239H26.7415V64.3411H28.0917Z" />
<path id="kwddm-text-right" d="M39.4211 64.3412V62.7655L39.9769 62.058L41.4042 64.3412H43.0623L40.993 61.1225L43.0253 58.5239H41.3918L39.4966 60.982H39.4211V58.5239H38.0386V64.3412H39.4211ZM45.6146 64.3412L46.643 60.8165H46.6892L47.7177 64.3412H49.0556L50.7245 58.5239H49.1911L48.3243 62.3453H48.275L47.2927 58.5239H46.0395L45.0557 62.3329H45.008L44.1396 58.5239H42.6078L44.2751 64.3412H45.6146ZM50.3911 58.5239V64.3412H51.7734H52.5127C53.0563 64.3412 53.5301 64.2401 53.9341 64.0378L54.0196 63.9929C54.4417 63.7607 54.7669 63.4272 54.9953 62.9923C55.2237 62.5574 55.3378 62.0377 55.3378 61.4333C55.3378 60.8279 55.2234 60.308 54.9945 59.8736C54.7656 59.4392 54.4401 59.1056 54.018 58.873C53.5959 58.6403 53.0931 58.5239 52.5096 58.5239H51.7737H50.9561H50.3911ZM51.7734 59.7234L52.4326 59.7233C52.7626 59.7233 53.0409 59.7786 53.2674 59.8892C53.494 59.9999 53.665 60.1802 53.7805 60.4304C53.896 60.6805 53.9538 61.0148 53.9538 61.4333C53.9538 61.8508 53.8963 62.185 53.7813 62.4359C53.6663 62.6869 53.4971 62.8672 53.2736 62.9771C53.0501 63.0869 52.7769 63.1418 52.4542 63.1418L51.7734 63.1419V59.7234ZM55.2438 58.5239V64.3412H56.6263H57.3654C57.909 64.3412 58.3828 64.2401 58.7868 64.0378L58.8723 63.9929C59.2944 63.7607 59.6196 63.4272 59.848 62.9923C60.0764 62.5574 60.1906 62.0377 60.1906 61.4333C60.1906 60.8279 60.0761 60.308 59.8472 59.8736C59.6183 59.4392 59.2928 59.1056 58.8707 58.873C58.4486 58.6403 57.9458 58.5239 57.3623 58.5239H56.6264H55.8088H55.2438ZM56.6263 59.7234L57.2853 59.7233C57.6153 59.7233 57.8936 59.7786 58.1202 59.8892C58.3467 59.9999 58.5178 60.1802 58.6332 60.4304C58.7487 60.6805 58.8065 61.0148 58.8065 61.4333C58.8065 61.8508 58.749 62.185 58.634 62.4359C58.5191 62.6869 58.3498 62.8672 58.1263 62.9771C57.9028 63.0869 57.6297 63.1418 57.3069 63.1418L56.6263 63.1419V59.7234ZM61.4467 64.3412V60.7524H61.4945L62.867 64.3037H63.7308L65.1141 60.7649H65.1557V64.3412H66.5113V58.5239H64.7939L63.3328 62.1252H63.2697L61.8147 58.5239H60.0965V64.3412H61.4467Z" />
<path id="kwddm-text-dot" d="M35.5 62.2236C35.9318 62.2236 36.2818 61.8686 36.2818 61.4307C36.2818 60.9927 35.9318 60.6377 35.5 60.6377C35.0683 60.6377 34.7183 60.9927 34.7183 61.4307C34.7183 61.8686 35.0683 62.2236 35.5 62.2236Z" />
<defs>
<style>
:root { --kwddm-text-fill: #111111; }

@media (prefers-color-scheme: dark) {
  :root { --kwddm-text-fill: #ffffff; }
}

#kwddm-text-left,
#kwddm-text-right,
#kwddm-text-dot { fill: var(--kwddm-text-fill); }

[data-theme="light"] #kwddm-text-left,
[data-theme="light"] #kwddm-text-right,
[data-theme="light"] #kwddm-text-dot { fill: #111111; }

[data-theme="dark"] #kwddm-text-left,
[data-theme="dark"] #kwddm-text-right,
[data-theme="dark"] #kwddm-text-dot { fill: #ffffff; }
</style>
<linearGradient id="paint0_linear_2315_3187" x1="26.3793" y1="12.2385" x2="46.2947" y2="45.0086" gradientUnits="userSpaceOnUse">
<stop stop-color="#ED1F24"/>
<stop offset="1" stop-color="#551A6A"/>
</linearGradient>
</defs>
</svg>
