<svg width="64" height="47" viewBox="0 0 64 47" fill="none" xmlns="http://www.w3.org/2000/svg">
<path d="M54.1787 3.89604C50.0996 2.09275 45.7253 0.764143 41.1517 0.00319005C41.0684 -0.0114907 40.9852 0.0252112 40.9423 0.0986151C40.3798 1.06265 39.7567 2.32031 39.3202 3.30881C34.4011 2.59924 29.5071 2.59924 24.6888 3.30881C24.2524 2.29828 23.6066 1.06265 23.0415 0.0986151C22.9987 0.027658 22.9154 -0.00904393 22.8322 0.00319005C18.2611 0.761697 13.8868 2.09031 9.80517 3.89604C9.76985 3.91072 9.73958 3.93519 9.7194 3.967C1.42238 15.9098 -0.850534 27.559 0.26448 39.0638C0.269526 39.1201 0.30232 39.1739 0.347728 39.2082C5.82189 43.0815 11.1245 45.4328 16.3288 46.9914C16.412 47.0159 16.5003 46.9865 16.5533 46.9205C17.7843 45.3007 18.8817 43.5928 19.8226 41.7969C19.8781 41.6917 19.8252 41.5669 19.7116 41.5253C17.971 40.8891 16.3136 40.1135 14.7193 39.2327C14.5932 39.1617 14.5831 38.988 14.6991 38.9048C15.0346 38.6626 15.3701 38.4105 15.6905 38.1561C15.7485 38.1096 15.8293 38.0998 15.8974 38.1292C26.3715 42.7365 37.7108 42.7365 48.0612 38.1292C48.1294 38.0973 48.2101 38.1071 48.2706 38.1536C48.591 38.4081 48.9265 38.6626 49.2646 38.9048C49.3806 38.988 49.373 39.1617 49.2469 39.2327C47.6526 40.1306 45.9952 40.8891 44.252 41.5229C44.1385 41.5645 44.0881 41.6917 44.1436 41.7969C45.1047 43.5904 46.2021 45.2983 47.4104 46.918C47.4609 46.9866 47.5517 47.0159 47.6349 46.9914C52.8644 45.4328 58.167 43.0815 63.6412 39.2082C63.6891 39.1739 63.7194 39.1226 63.7244 39.0663C65.0589 25.7655 61.4893 14.2117 54.2619 3.96945C54.2443 3.93519 54.214 3.91072 54.1787 3.89604ZM21.3867 32.0587C18.2334 32.0587 15.635 29.2693 15.635 25.8438C15.635 22.4183 18.1829 19.6289 21.3867 19.6289C24.6157 19.6289 27.1888 22.4428 27.1383 25.8438C27.1383 29.2693 24.5905 32.0587 21.3867 32.0587ZM42.6527 32.0587C39.4994 32.0587 36.901 29.2693 36.901 25.8438C36.901 22.4183 39.4489 19.6289 42.6527 19.6289C45.8817 19.6289 48.4548 22.4428 48.4043 25.8438C48.4043 29.2693 45.8817 32.0587 42.6527 32.0587Z" fill="#5865F2"/>
</svg>
