<svg width="64" height="63" viewBox="0 0 64 63" fill="none" xmlns="http://www.w3.org/2000/svg">
<defs>
<style>
:root { --github-mark-fill: #111111; }

@media (prefers-color-scheme: dark) {
  :root { --github-mark-fill: #ffffff; }
}

#github-mark { fill: var(--github-mark-fill); }

[data-theme="light"] #github-mark { fill: #111111; }
[data-theme="dark"] #github-mark { fill: #ffffff; }
</style>
</defs>
<path id="github-mark" d="M32 0C14.32 0 0 14.4528 0 32.2968C0 46.5881 9.16 58.659 21.88 62.9383C23.48 63.2209 24.08 62.252 24.08 61.4042C24.08 60.6372 24.04 58.0938 24.04 55.3889C16 56.8827 13.92 53.4108 13.28 51.5941C12.92 50.6655 11.36 47.7992 10 47.0321C8.88 46.4266 7.28 44.9329 9.96 44.8925C12.48 44.8521 14.28 47.234 14.88 48.2029C17.76 53.0878 22.36 51.7152 24.2 50.8674C24.48 48.7681 25.32 47.3551 26.24 46.5477C19.12 45.7403 11.68 42.9547 11.68 30.6012C11.68 27.0889 12.92 24.1822 14.96 21.9214C14.64 21.114 13.52 17.8036 15.28 13.3628C15.28 13.3628 17.96 12.515 24.08 16.6732C26.64 15.9465 29.36 15.5832 32.08 15.5832C34.8 15.5832 37.52 15.9465 40.08 16.6732C46.2 12.4746 48.88 13.3628 48.88 13.3628C50.64 17.8036 49.52 21.114 49.2 21.9214C51.24 24.1822 52.48 27.0485 52.48 30.6012C52.48 42.9951 45 45.7403 37.88 46.5477C39.04 47.557 40.04 49.4948 40.04 52.5226C40.04 56.8423 40 60.3142 40 61.4042C40 62.252 40.6 63.2613 42.2 62.9383C48.5526 60.7738 54.0727 56.6533 57.9834 51.1565C61.894 45.6598 63.9983 39.0637 64 32.2968C64 14.4528 49.68 0 32 0Z" />
</svg>
