<svg width="71" height="72" viewBox="0 0 71 72" fill="none" xmlns="http://www.w3.org/2000/svg">
<defs>
<style>
@media (prefers-color-scheme: dark) {
	#owddm-text { fill: #fff !important; }
}
[data-theme="dark"] #owddm-text { fill: #fff !important; }
</style>
</defs>
<path fill-rule="evenodd" clip-rule="evenodd" d="M35.454 6.64844L54.2346 17.7184V39.8584L35.454 50.9284L16.6733 39.8584L16.6733 17.7184L35.454 6.64844Z" fill="#ED1F24"/>
<path fill-rule="evenodd" clip-rule="evenodd" d="M38.1404 22.5059H40.3594L33.2351 35.1343H31.0161L38.1404 22.5059Z" fill="white"/>
<path fill-rule="evenodd" clip-rule="evenodd" d="M23.0249 28.036L29.4245 25.2207V27.0844L24.9546 28.8007V28.8269L29.4245 30.5431V32.4069L23.0249 29.5916" fill="white"/>
<path fill-rule="evenodd" clip-rule="evenodd" d="M47.8765 28.0492L41.4769 25.2339V27.0976L45.9468 28.8139V28.8401L41.4769 30.5563V32.42L47.8765 29.6047" fill="white"/>
<path id="owddm-text" d="M23.1309 64.2988C23.6787 64.2988 24.1722 64.1761 24.6114 63.9307C25.0505 63.6854 25.3987 63.3263 25.656 62.8536C25.9133 62.3808 26.0419 61.8046 26.0419 61.125C26.0419 60.4426 25.9133 59.8643 25.656 59.3902C25.3987 58.9161 25.0505 58.5563 24.6114 58.3109C24.1722 58.0656 23.6787 57.9429 23.1309 57.9429C22.5836 57.9429 22.0896 58.0656 21.6488 58.3109C21.208 58.5563 20.8594 58.9161 20.6029 59.3902C20.3465 59.8643 20.2183 60.4426 20.2183 61.125C20.2183 61.8024 20.3465 62.3775 20.6029 62.8502C20.8594 63.323 21.208 63.6826 21.6488 63.9291C22.0896 64.1756 22.5836 64.2988 23.1309 64.2988ZM23.1309 62.9894C22.8387 62.9894 22.5877 62.9178 22.378 62.7746C22.1682 62.6315 22.0068 62.4211 21.8938 62.1436C21.7807 61.8661 21.7242 61.5266 21.7242 61.125C21.7242 60.7206 21.7807 60.379 21.8938 60.1001C22.0068 59.8212 22.1682 59.6102 22.378 59.467C22.5877 59.3239 22.8387 59.2523 23.1309 59.2523C23.4253 59.2523 23.6773 59.3239 23.8867 59.467C24.0962 59.6102 24.2567 59.8212 24.3684 60.1001C24.4801 60.379 24.536 60.7206 24.536 61.125C24.536 61.5266 24.4801 61.8661 24.3684 62.1436C24.2567 62.4211 24.0962 62.6315 23.8867 62.7746C23.6773 62.9178 23.4253 62.9894 23.1309 62.9894ZM28.5152 64.2157L29.6098 60.4653H29.659L30.7536 64.2157H32.1775L33.9538 58.026H32.3217L31.3992 62.0921H31.3467L30.3013 58.026H28.9675L27.9204 62.0788H27.8696L26.9454 58.026H25.3151L27.0896 64.2157H28.5152ZM33.5989 58.026V64.2157H35.0701H35.8569C36.4355 64.2157 36.9398 64.1081 37.3697 63.8929L37.4607 63.8452C37.9099 63.5981 38.2561 63.2432 38.4991 62.7804C38.7422 62.3177 38.8637 61.7648 38.8637 61.1217C38.8637 60.4775 38.7419 59.9243 38.4983 59.462C38.2547 58.9998 37.9083 58.6449 37.459 58.3973C37.0098 58.1497 36.4746 58.026 35.8536 58.026H35.0704H34.2002H33.5989ZM35.0701 59.3023L35.7717 59.3021C36.1229 59.3021 36.4191 59.361 36.6602 59.4787C36.9013 59.5964 37.0834 59.7883 37.2063 60.0545C37.3292 60.3206 37.3907 60.6764 37.3907 61.1217C37.3907 61.5659 37.3295 61.9215 37.2071 62.1885C37.0847 62.4555 36.9046 62.6474 36.6668 62.7642C36.4289 62.8811 36.1382 62.9395 35.7946 62.9395L35.0701 62.9397V59.3023ZM38.7637 58.026V64.2157H40.2351H41.0217C41.6003 64.2157 42.1045 64.1081 42.5345 63.8929L42.6254 63.8452C43.0747 63.5981 43.4208 63.2432 43.6639 62.7804C43.907 62.3177 44.0285 61.7648 44.0285 61.1217C44.0285 60.4775 43.9067 59.9243 43.6631 59.462C43.4195 58.9998 43.073 58.6449 42.6238 58.3973C42.1745 58.1497 41.6394 58.026 41.0184 58.026H40.2351H39.365H38.7637ZM40.2351 59.3023L40.9365 59.3021C41.2877 59.3021 41.5838 59.361 41.825 59.4787C42.0661 59.5964 42.2481 59.7883 42.371 60.0545C42.494 60.3206 42.5554 60.6764 42.5554 61.1217C42.5554 61.5659 42.4942 61.9215 42.3719 62.1885C42.2495 62.4555 42.0694 62.6474 41.8315 62.7642C41.5936 62.8811 41.3029 62.9395 40.9594 62.9395L40.2351 62.9397V59.3023ZM45.3655 64.2157V60.3972H45.4163L46.8771 64.1759H47.7964L49.2686 60.4105H49.3129V64.2157H50.7556V58.026H48.9278L47.3727 61.8578H47.3056L45.7571 58.026H43.9284V64.2157H45.3655Z" fill="#111111"/>
</svg>
